# xmcd
#
# Track frame offsets:
#	150
#	16630
#	32588
#	49298
#	65711
#	86917
#	99678
#	130014
#	145417
#	158548
#	179049
#	192431
#	205874
#	226531
#
# Disc length: 3170 seconds
# Revision: 1
# Processed by: cddbd v1.5.2PL0 Copyright (c) Steve Scherf et al.
# Submitted via: dBpowerAMP V12.0
#
DISCID=bd0c600e
DTITLE=Lil' Ed and The Blues Imperials - The Big Sound Of Lil' Ed and The Blues Imperials
DYEAR=2016
DGENRE=Blues
TTITLE0=Giving Up On Your Love
TTITLE1=Raining In Paris
TTITLE2=Poor Man's Song
TTITLE3=Shy Voice
TTITLE4=Black Diamond Love
TTITLE5=Whiskey Flavored Tears
TTITLE6=I'll Cry Tomorrow
TTITLE7=Is It You?
TTITLE8=I'm Done
TTITLE9=Deep In My Soul
TTITLE10=I Want It All
TTITLE11=I Like My Hot Sauce Cold
TTITLE12=Troubled World
TTITLE13=Green Light Groove
EXTD=
EXTT0=
EXTT1=
EXTT2=
EXTT3=
EXTT4=
EXTT5=
EXTT6=
EXTT7=
EXTT8=
EXTT9=
EXTT10=
EXTT11=
EXTT12=
EXTT13=
PLAYORDER=
